#N canvas 163 44 1084 465 10;
#X obj 280 75 hsl 128 15 0 127 0 0 g1start settings8 start 4 7 0 10
-262144 -1 -1 2800 1;
#X obj 280 58 hsl 128 15 0 127 0 0 g1resonance settings1 resonance
4 7 0 10 -262144 -1 -1 0 1;
#X obj 423 75 hsl 128 15 0 127 0 0 g2start settings9 start 4 7 0 10
-262144 -1 -1 3100 1;
#X obj 423 58 hsl 128 15 0 127 0 0 g2resonance settings3 resonance
4 7 0 10 -262144 -1 -1 3900 1;
#X floatatom 343 2 5 0 21 0 _slot: bla saveslot, f 5;
#X floatatom 129 -12 5 0 0 1 pgm_nr. bla pgmnr, f 5;
#X obj 52 -12 bng 15 250 50 0 pgmchange bla pgmchange 17 7 0 10 -262144
-1 -1;
#X obj 598 -37 hsl 128 15 0 127 0 0 aumin settings14 min 4 7 0 10 -262144
-1 -1 1800 1;
#X obj 280 109 hsl 128 15 0 127 0 0 g1attack settings6 attack 4 7 0
10 -262144 -1 -1 300 1;
#X obj 423 109 hsl 128 15 0 127 0 0 g2attack settings7 attack 4 7 0
10 -262144 -1 -1 3500 1;
#X obj 280 92 hsl 128 15 0 127 0 0 g1end settings0 end 4 7 0 10 -262144
-1 -1 3500 1;
#X obj 423 92 hsl 128 15 0 127 0 0 g2end settings2 end 4 7 0 10 -262144
-1 -1 3800 1;
#X obj 280 126 hsl 128 15 0 127 0 0 g1decay settings10 decay 4 7 0
10 -262144 -1 -1 1300 1;
#X obj 280 143 hsl 128 15 0 127 0 0 g1sustain settings11 sustain 4
7 0 10 -262144 -1 -1 1800 1;
#X obj 423 126 hsl 128 15 0 127 0 0 g2decay settings12 decay 4 7 0
10 -262144 -1 -1 3900 1;
#X obj 423 143 hsl 128 15 0 127 0 0 g2sustain settings13 sustain 4
7 0 10 -262144 -1 -1 2000 1;
#X obj 598 -20 hsl 128 15 0 127 0 0 aumax settings5 max 4 7 0 10 -262144
-1 -1 3500 1;
#X obj 598 -3 hsl 128 15 0 127 0 0 auattack settings15 attack 4 7 0
10 -262144 -1 -1 4200 1;
#X obj 598 14 hsl 128 15 0 127 0 0 audecay settings16 decay 4 7 0 10
-262144 -1 -1 6600 1;
#X obj 598 31 hsl 128 15 0 127 0 0 ausustain settings17 sustain 4 7
0 10 -262144 -1 -1 3800 1;
#X obj 598 48 hsl 128 15 0 127 0 0 aurelease settings20 release 4 7
0 10 -262144 -1 -1 2500 1;
#X obj 280 160 hsl 128 15 0 127 0 0 g1release settings18 release 4
7 0 10 -262144 -1 -1 1200 1;
#X obj 423 160 hsl 128 15 0 127 0 0 g2release settings19 release 4
7 0 10 -262144 -1 -1 2000 1;
#X obj 758 101 hsl 128 15 0 127 0 0 lfospeed settings21 speed 4 7 0
10 -262144 -1 -1 3500 1;
#X obj 758 118 hsl 128 15 0 127 0 0 lfodepth settings22 depth 4 7 0
10 -262144 -1 -1 2500 1;
#X obj 281 208 hsl 128 15 0 127 0 0 g1pulsewidth settings26 pulsewidth
4 7 0 10 -262144 -1 -1 700 1;
#X obj 424 208 hsl 128 15 0 127 0 0 g2pulsewidth settings27 pulsewidth
4 7 0 10 -262144 -1 -1 3100 1;
#X obj 758 169 hsl 128 15 0 127 0 0 lfoattack settings28 attack 4 7
0 10 -262144 -1 -1 2100 1;
#X obj 758 152 hsl 128 15 0 127 0 0 lfomax settings30 max 4 7 0 10
-262144 -1 -1 2500 1;
#X obj 758 135 hsl 128 15 0 127 0 0 lfomin settings29 min 4 7 0 10
-262144 -1 -1 2700 1;
#X obj 758 186 hsl 128 15 0 127 0 0 lfooffset settings31 offset 4 7
0 10 -262144 -1 -1 2100 1;
#X obj 891 84 tgl 15 0 wts wtr wavetable2_pitch 17 7 0 10 -262144 -1
-1 1 1;
#X obj 891 101 tgl 15 0 ns nr note 17 7 0 10 -262144 -1 -1 0 1;
#X obj 891 118 tgl 15 0 g1s g1r grain1_cutoff 17 7 0 10 -262144 -1
-1 1 1;
#X obj 891 135 tgl 15 0 g2s g2r grain2_cutoff 17 7 0 10 -262144 -1
-1 0 1;
#X obj 891 152 tgl 15 0 g1resos g1resor grain1_reso 17 7 0 10 -262144
-1 -1 1 1;
#X obj 891 169 tgl 15 0 g2resos g2resor grain2_reso 17 7 0 10 -262144
-1 -1 0 1;
#X obj 891 186 tgl 15 0 wtns wtnr wavetable2_note 17 7 0 10 -262144
-1 -1 1 1;
#X obj 901 -37 bng 15 250 50 0 fire bla manual_adsr 17 7 0 10 -262144
-1 -1;
#X obj 757 -37 hsl 128 15 0 127 0 0 wtmin settings36 min 4 7 0 10 -262144
-1 -1 2700 1;
#X obj 757 -20 hsl 128 15 0 127 0 0 wtmax settings37 max 4 7 0 10 -262144
-1 -1 3700 1;
#X obj 757 -3 hsl 128 15 0 127 0 0 wtattack settings35 attack 4 7 0
10 -262144 -1 -1 3200 1;
#X obj 757 14 hsl 128 15 0 127 0 0 wtdecay settings38 decay 4 7 0 10
-262144 -1 -1 4200 1;
#X obj 757 31 hsl 128 15 0 127 0 0 wtsustain settings39 sustain 4 7
0 10 -262144 -1 -1 4000 1;
#X obj 757 48 hsl 128 15 0 127 0 0 wtrelease settings40 release 4 7
0 10 -262144 -1 -1 3700 1;
#X obj 278 190 hradio 15 1 0 2 g1waveform settings23a waveform 0 -8
0 10 -262144 -1 -1 1;
#X obj 421 190 hradio 15 1 0 2 g2waveform settings23b waveform 0 -8
0 10 -262144 -1 -1 0;
#X obj 756 218 hradio 15 1 0 4 lfotrig settings24b release 0 -8 0 10
-262144 -1 -1 3;
#X obj 755 83 hradio 15 1 0 6 lfowave settings24a rising_saw 0 -8 0
10 -262144 -1 -1 2;
#X obj 279 282 hsl 128 15 0 127 0 0 wt3volume settings41 volume 4 7
0 10 -262144 -1 -1 2900 1;
#X obj 278 337 hsl 128 15 0 127 0 0 wt4volume settings42 volume 4 7
0 10 -262144 -1 -1 3900 1;
#X obj 276 265 hradio 15 1 0 5 wtwaveform3 settings25a sine 0 -8 0
10 -262144 -1 -1 0;
#X obj 275 320 hradio 15 1 0 5 wtwaveform4 settings25b noise 0 -8 0
10 -262144 -1 -1 4;
#X floatatom 156 -78 5 0 127 1 aftertouchtest bla attest, f 5;
#X obj 13 27 tgl 15 0 bit1s bit1r empty 17 7 0 10 -262144 -1 -1 0 1
;
#X obj 30 27 tgl 15 0 bit2s bit2r empty 17 7 0 10 -262144 -1 -1 0 1
;
#X obj 47 27 tgl 15 0 bit3s bit3r empty 17 7 0 10 -262144 -1 -1 0 1
;
#X obj 64 27 tgl 15 0 bit4s bit4r empty 17 7 0 10 -262144 -1 -1 0 1
;
#X obj 81 27 tgl 15 0 bit5s bit5r empty 17 7 0 10 -262144 -1 -1 0 1
;
#X obj 98 27 tgl 15 0 bit6s bit6r empty 17 7 0 10 -262144 -1 -1 0 1
;
#X obj 115 27 tgl 15 0 bit7s bit7r empty 17 7 0 10 -262144 -1 -1 0
1;
#N canvas 696 74 450 300 testsequence 0;
#X obj 149 274 noteout;
#X obj 167 101 f;
#X obj 168 122 + 1;
#X obj 169 144 select 1 2 3 4 5 6 7 8 9 10;
#X msg 339 144 0;
#X obj 149 219 + 0;
#X obj 166 81 metro 1000;
#X obj 149 246 makenote 127 900;
#X msg 55 174 30;
#X msg 85 174 32;
#X msg 116 174 34;
#X msg 146 174 35;
#X msg 176 173 37;
#X msg 207 173 39;
#X msg 239 173 41;
#X msg 269 173 42;
#X msg 299 173 41;
#X msg 329 174 39;
#X obj 58 23 inlet;
#X connect 1 0 2 0;
#X connect 2 0 1 1;
#X connect 2 0 3 0;
#X connect 3 0 8 0;
#X connect 3 1 9 0;
#X connect 3 2 10 0;
#X connect 3 3 11 0;
#X connect 3 4 12 0;
#X connect 3 5 13 0;
#X connect 3 6 14 0;
#X connect 3 7 15 0;
#X connect 3 8 16 0;
#X connect 3 9 4 0;
#X connect 3 9 17 0;
#X connect 4 0 1 1;
#X connect 5 0 7 0;
#X connect 6 0 1 0;
#X connect 7 0 0 0;
#X connect 7 1 0 1;
#X connect 8 0 5 0;
#X connect 9 0 5 0;
#X connect 10 0 5 0;
#X connect 11 0 5 0;
#X connect 12 0 5 0;
#X connect 13 0 5 0;
#X connect 14 0 5 0;
#X connect 15 0 5 0;
#X connect 16 0 5 0;
#X connect 17 0 5 0;
#X connect 18 0 6 0;
#X restore 58 -58 pd testsequence;
#X obj 58 -79 tgl 15 0 empty empty start/stop 17 7 0 10 -262144 -1
-1 0 1;
#N canvas 0 22 450 300 wtadsr 0;
#X obj 113 18 list append 117 1;
#X obj 126 74 list append 118 1;
#X obj 115 274 list append 121 1;
#X obj 116 227 list append 120 1;
#X obj 113 179 list append 119 1;
#X obj 116 133 list append 116 1;
#X obj 47 190 s control;
#X obj 115 252 r wtrelease;
#X obj 117 207 r wt sustain;
#X obj 114 156 r wtdecay;
#X obj 117 112 r wtattack;
#X obj 127 53 r wtmax;
#X obj 113 -2 r wtmin;
#X connect 0 0 6 0;
#X connect 1 0 6 0;
#X connect 2 0 6 0;
#X connect 3 0 6 0;
#X connect 4 0 6 0;
#X connect 5 0 6 0;
#X connect 7 0 2 0;
#X connect 8 0 3 0;
#X connect 9 0 4 0;
#X connect 10 0 5 0;
#X connect 11 0 1 0;
#X connect 12 0 0 0;
#X restore 74 198 pd wtadsr;
#N canvas 0 22 450 300 auadsr 0;
#X obj 59 68 list append 66 1;
#X obj 59 25 list append 78 1;
#X obj 58 117 list append 77 1;
#X obj 57 165 list append 79 1;
#X obj 59 209 list append 80 1;
#X obj 63 249 list append 83 1;
#X obj 58 273 s control;
#X obj 60 5 r aumin;
#X obj 60 48 r aumax;
#X obj 58 94 r auattack;
#X obj 58 141 r audecay;
#X obj 59 185 r ausustain;
#X obj 62 230 r aurelease;
#X connect 0 0 6 0;
#X connect 1 0 6 0;
#X connect 2 0 6 0;
#X connect 3 0 6 0;
#X connect 4 0 6 0;
#X connect 5 0 6 0;
#X connect 7 0 1 0;
#X connect 8 0 0 0;
#X connect 9 0 2 0;
#X connect 10 0 3 0;
#X connect 11 0 4 0;
#X connect 12 0 5 0;
#X restore 74 179 pd auadsr;
#X text 596 -54 auduino volume adsr;
#X text 754 -56 wavetable volume adsr;
#X floatatom 994 -14 5 -48 48 0 mastertranspose settings45offset mastertranspose
, f 5;
#N canvas 416 65 842 592 general 0;
#X obj 126 74 list append 56 1;
#X obj 126 100 s control;
#X obj 146 46 + 48;
#X obj 150 15 r mastertranspose;
#X obj 11 79 r settings45;
#X obj 12 100 - 48;
#X obj 13 124 s settings45offset;
#X obj 277 53 list append 122 1;
#X obj 273 188 s control;
#X obj 283 150 list append 61 1;
#X obj 279 11 r ati1s;
#X obj 276 33 + 63;
#X obj 281 108 r ati2s;
#X obj 283 129 + 63;
#X obj 161 133 r settings46;
#X obj 146 215 r settings47;
#X obj 161 153 - 63;
#X obj 146 236 - 63;
#X obj 161 174 s ati1r;
#X obj 145 256 s ati2r;
#X obj 50 404 list append 62 1;
#X obj 167 422 list append 63 1;
#X msg 167 394 127;
#X obj 355 356 pgmout;
#X obj 355 310 f;
#X obj 355 333 + 1;
#X obj 101 328 list append 113 1;
#X msg 101 306 127;
#X obj 22 315 bendout;
#X obj 22 355 touchout;
#X msg 167 373 80;
#X obj 100 351 s control;
#X obj 169 444 s control;
#X obj 50 425 s control;
#N canvas 369 106 945 547 get-preset 0;
#X obj 100 -210 midiin;
#X obj 100 -188 route 240;
#X obj 301 39 ctlout;
#X obj 301 -59 r control;
#X obj 301 -37 list split 2;
#X obj 301 -15 list append 1;
#X floatatom 382 -37 5 0 0 1 channel - -, f 5;
#X obj 148 -144 route 247;
#X obj 164 -220 text define sysex;
#X obj 157 -65 text set sysex;
#X obj 185 -100 f;
#X obj 211 -99 + 1;
#X msg 106 -118 0;
#X obj 156 -121 t f b;
#X obj 11 23 text get sysex;
#X obj 105 -67 until;
#X obj 58 -40 f;
#X obj 84 -39 + 1;
#X msg 123 31 0;
#X obj 134 -35 t f f;
#X obj 10 50 list prepend;
#X obj 1 150 s settings0;
#X obj 2 170 s settings1;
#X msg 123 59 stop;
#X msg 39 -106 bang;
#X obj 2 190 s settings2;
#X obj 2 209 s settings3;
#X obj 75 150 s settings4;
#X obj 76 170 s settings5;
#X obj 76 190 s settings6;
#X obj 76 209 s settings7;
#X obj 148 151 s settings8;
#X obj 148 170 s settings9;
#X obj 148 190 s settings10;
#X obj 148 209 s settings11;
#X obj 226 152 s settings12;
#X obj 226 171 s settings13;
#X obj 227 190 s settings14;
#X obj 227 209 s settings15;
#X obj 308 153 s settings16;
#X obj 308 172 s settings17;
#X obj 309 191 s settings18;
#X obj 309 210 s settings19;
#X obj 387 154 s settings20;
#X obj 387 173 s settings21;
#X obj 388 192 s settings22;
#X obj 488 211 s settings23a;
#X obj 488 230 s settings23b;
#X obj 388 213 >> 4;
#X obj 388 231 & 15;
#X obj 388 251 >> 4;
#X obj 388 271 & 15;
#X obj 488 251 s settings24a;
#X obj 488 270 s settings24b;
#X obj 388 291 >> 4;
#X obj 388 309 & 15;
#X obj 488 289 s settings25a;
#X obj 488 308 s settings25b;
#X obj 466 153 s settings26;
#X obj 467 172 s settings27;
#X obj 575 146 s settings28;
#X obj 575 165 s settings29;
#X obj 575 185 s settings30;
#X obj 575 204 s settings31;
#X obj 653 147 s settings32;
#X obj 653 166 s settings33;
#X obj 654 185 s settings34;
#X obj 654 204 s settings35;
#X obj 735 148 s settings36;
#X obj 735 167 s settings37;
#X obj 736 186 s settings38;
#X obj 736 205 s settings39;
#X obj 816 148 s settings40;
#X obj 816 167 s settings41;
#X obj 817 186 s settings42;
#X obj 817 205 s settings43;
#X obj 16 101 route 0 1 2 3 4 5 6 7 8 9 10 11 12 13 14 15 16 17 18
19 20 21 22 23 24 25 26 27 28 29 30 31 32 33 34 35 36 37 38 39 40 41
42 43 44 45 46 47, f 139;
#X obj 897 149 s settings44;
#X obj 897 168 s settings45;
#X obj 898 187 s settings46;
#X obj 898 206 s settings47;
#X msg 104 -90 47;
#X obj 77 -8 select 47;
#X obj 29 -190 inlet;
#X obj 42 -72 metro 10;
#X obj 47 -135 delay 10;
#X obj 301 11 unpack f f f;
#X obj 388 273;
#X obj 191 -15 s offon;
#X msg 260 -105 1;
#X obj 260 -84 s offon;
#X connect 0 0 1 0;
#X connect 1 0 12 0;
#X connect 1 1 7 0;
#X connect 3 0 4 0;
#X connect 4 0 5 0;
#X connect 5 0 86 0;
#X connect 6 0 5 1;
#X connect 7 0 85 0;
#X connect 7 0 89 0;
#X connect 7 1 13 0;
#X connect 10 0 11 0;
#X connect 10 0 9 1;
#X connect 11 0 10 1;
#X connect 12 0 10 1;
#X connect 12 0 88 0;
#X connect 13 0 9 0;
#X connect 13 1 10 0;
#X connect 14 0 20 0;
#X connect 15 0 16 0;
#X connect 16 0 17 0;
#X connect 16 0 19 0;
#X connect 16 0 82 0;
#X connect 17 0 16 1;
#X connect 18 0 16 1;
#X connect 18 0 23 0;
#X connect 19 0 14 0;
#X connect 19 1 20 1;
#X connect 20 0 76 0;
#X connect 23 0 84 0;
#X connect 24 0 84 0;
#X connect 48 0 46 0;
#X connect 49 0 47 0;
#X connect 50 0 52 0;
#X connect 50 0 87 0;
#X connect 51 0 53 0;
#X connect 54 0 56 0;
#X connect 55 0 57 0;
#X connect 76 0 21 0;
#X connect 76 1 22 0;
#X connect 76 2 25 0;
#X connect 76 3 26 0;
#X connect 76 4 27 0;
#X connect 76 5 28 0;
#X connect 76 6 29 0;
#X connect 76 7 30 0;
#X connect 76 8 31 0;
#X connect 76 9 32 0;
#X connect 76 10 33 0;
#X connect 76 11 34 0;
#X connect 76 12 35 0;
#X connect 76 13 36 0;
#X connect 76 14 37 0;
#X connect 76 15 38 0;
#X connect 76 16 39 0;
#X connect 76 17 40 0;
#X connect 76 18 41 0;
#X connect 76 19 42 0;
#X connect 76 20 43 0;
#X connect 76 21 44 0;
#X connect 76 22 45 0;
#X connect 76 23 48 0;
#X connect 76 23 49 0;
#X connect 76 24 50 0;
#X connect 76 24 51 0;
#X connect 76 25 54 0;
#X connect 76 25 55 0;
#X connect 76 26 58 0;
#X connect 76 27 59 0;
#X connect 76 28 60 0;
#X connect 76 29 61 0;
#X connect 76 30 62 0;
#X connect 76 31 63 0;
#X connect 76 32 64 0;
#X connect 76 33 65 0;
#X connect 76 34 66 0;
#X connect 76 35 67 0;
#X connect 76 36 68 0;
#X connect 76 37 69 0;
#X connect 76 38 70 0;
#X connect 76 39 71 0;
#X connect 76 40 72 0;
#X connect 76 41 73 0;
#X connect 76 42 74 0;
#X connect 76 43 75 0;
#X connect 76 44 77 0;
#X connect 76 45 78 0;
#X connect 76 46 79 0;
#X connect 76 47 80 0;
#X connect 81 0 15 0;
#X connect 82 0 18 0;
#X connect 83 0 24 0;
#X connect 84 0 16 0;
#X connect 85 0 24 0;
#X connect 86 0 2 0;
#X connect 86 1 2 1;
#X connect 86 2 2 2;
#X connect 89 0 90 0;
#X restore 289 408 pd get-preset;
#X msg 289 385 recall preset from buffer;
#X obj 446 262 openpanel;
#X msg 446 285 \; sysex read \$1;
#X obj 378 435 savepanel;
#X msg 362 462 \; sysex write \$1.txt;
#X obj 455 234 r loadfile;
#X obj 377 415 r savefile;
#X obj 22 295 + 8192;
#X obj 22 275 r pitchbend;
#X obj 168 351 r loadfromsynth;
#X obj 195 394 r savetosynth;
#X obj 49 382 r saveslot;
#X obj 289 359 delay 50;
#X obj 23 335 r attest;
#X obj 101 285 r fire;
#X obj 370 289 r pgmnr;
#X obj 293 286 r pgmchange;
#X obj 529 44 list append 65 1;
#X obj 529 65 s control;
#X obj 410 19 r settings4;
#N canvas 0 22 450 300 outputbytetobit 0;
#X obj 322 112 & 1;
#X obj 236 111 & 1;
#X obj 193 111 & 1;
#X obj 150 111 & 1;
#X obj 107 111 & 1;
#X obj 64 111 & 1;
#X obj 279 111 & 1;
#X obj 236 86 >> 2;
#X obj 193 86 >> 3;
#X obj 150 86 >> 4;
#X obj 279 86 >> 1;
#X obj 107 86 >> 5;
#X obj 64 86 >> 6;
#X obj 223 40 t f f f f f f f f;
#X obj 223 14 inlet;
#X obj 64 145 s bit1r;
#X obj 107 145 s bit2r;
#X obj 150 145 s bit3r;
#X obj 193 145 s bit4r;
#X obj 236 145 s bit5r;
#X obj 279 145 s bit6r;
#X obj 322 145 s bit7r;
#X connect 0 0 21 0;
#X connect 1 0 19 0;
#X connect 2 0 18 0;
#X connect 3 0 17 0;
#X connect 4 0 16 0;
#X connect 5 0 15 0;
#X connect 6 0 20 0;
#X connect 7 0 1 0;
#X connect 8 0 2 0;
#X connect 9 0 3 0;
#X connect 10 0 6 0;
#X connect 11 0 4 0;
#X connect 12 0 5 0;
#X connect 13 1 12 0;
#X connect 13 2 11 0;
#X connect 13 3 9 0;
#X connect 13 4 8 0;
#X connect 13 5 7 0;
#X connect 13 6 10 0;
#X connect 13 7 0 0;
#X connect 14 0 13 0;
#X restore 408 39 pd outputbytetobit;
#N canvas 0 22 450 300 outputbittobyte 0;
#X obj 11 59 << 7;
#X obj 47 59 << 6;
#X obj 83 59 << 5;
#X obj 119 59 << 4;
#X obj 155 60 << 3;
#X obj 191 59 << 2;
#X obj 227 59 << 1;
#X obj 47 80 t b f;
#X obj 11 145 +;
#X obj 83 80 t b f;
#X obj 11 180 +;
#X obj 119 80 t b f;
#X obj 11 217 +;
#X obj 155 80 t b f;
#X obj 11 254 +;
#X obj 191 80 t b f;
#X obj 11 290 +;
#X obj 227 80 t b f;
#X obj 263 80 t b f;
#X obj 11 327 +;
#X obj 11 353 outlet;
#X obj 11 112 +;
#X obj 34 12 r bit1s;
#X obj 83 12 r bit2s;
#X obj 132 9 r bit3s;
#X obj 185 10 r bit4s;
#X obj 234 11 r bit5s;
#X obj 284 12 r bit6s;
#X obj 335 12 r bit7s;
#X connect 0 0 21 0;
#X connect 1 0 7 0;
#X connect 2 0 9 0;
#X connect 3 0 11 0;
#X connect 4 0 13 0;
#X connect 5 0 15 0;
#X connect 6 0 17 0;
#X connect 7 0 21 0;
#X connect 7 1 21 1;
#X connect 8 0 10 0;
#X connect 9 0 8 0;
#X connect 9 1 8 1;
#X connect 10 0 12 0;
#X connect 11 0 10 0;
#X connect 11 1 10 1;
#X connect 12 0 14 0;
#X connect 13 0 12 0;
#X connect 13 1 12 1;
#X connect 14 0 16 0;
#X connect 15 0 14 0;
#X connect 15 1 14 1;
#X connect 16 0 19 0;
#X connect 17 0 16 0;
#X connect 17 1 16 1;
#X connect 18 0 19 0;
#X connect 18 1 19 1;
#X connect 19 0 20 0;
#X connect 21 0 8 0;
#X connect 22 0 1 0;
#X connect 23 0 2 0;
#X connect 24 0 3 0;
#X connect 25 0 4 0;
#X connect 26 0 5 0;
#X connect 27 0 6 0;
#X connect 28 0 18 0;
#X restore 528 22 pd outputbittobyte;
#N canvas 240 22 1157 672 currentsound 0;
#X obj 43 526 text set sysex;
#X obj 132 100 r wtsustain;
#X obj 38 500 unpack;
#X obj 132 121 list append 39;
#X obj 132 143 s current;
#X obj 38 439 r current;
#X obj 225 142 s current;
#X obj 225 120 list append 40;
#X obj 225 101 r wtrelease;
#X obj 42 142 s current;
#X obj 42 120 list append 38;
#X obj 42 99 r wtdecay;
#X obj 131 79 s current;
#X obj 224 78 s current;
#X obj 41 78 s current;
#X obj 224 37 r wtattack;
#X obj 131 36 r wtmax;
#X obj 41 35 r wtmin;
#X obj 41 56 list append 36;
#X obj 131 57 list append 37;
#X obj 224 56 list append 35;
#X obj 418 138 s current;
#X obj 511 137 s current;
#X obj 328 137 s current;
#X obj 417 74 s current;
#X obj 510 73 s current;
#X obj 327 73 s current;
#X obj 327 51 list append 14;
#X obj 327 30 r aumin;
#X obj 417 31 r aumax;
#X obj 417 52 list append 5;
#X obj 510 32 r auattack;
#X obj 510 51 list append 15;
#X obj 328 94 r audecay;
#X obj 328 115 list append 16;
#X obj 418 95 r ausustain;
#X obj 511 96 r aurelease;
#X obj 418 116 list append 17;
#X obj 511 115 list append 20;
#X obj 433 249 r lfowave;
#X obj 433 269 << 4;
#X obj 498 248 r lfotrig;
#X obj 450 360 +;
#X obj 462 324 f;
#X obj 433 292 t f b;
#X obj 498 306 f;
#X obj 544 299 t b f;
#X obj 450 381 list append 24;
#X obj 450 403 s current;
#X obj 46 283 s current;
#X obj 46 240 r lfospeed;
#X obj 46 261 list append 21;
#X obj 139 283 s current;
#X obj 139 240 r lfodepth;
#X obj 139 261 list append 22;
#X obj 231 282 s current;
#X obj 231 260 list append 29;
#X obj 231 239 r lfomin;
#X obj 42 351 s current;
#X obj 42 329 list append 30;
#X obj 42 308 r lfomax;
#X obj 135 351 s current;
#X obj 135 308 r lfoattack;
#X obj 135 329 list append 28;
#X obj 227 352 s current;
#X obj 227 309 r lfooffset;
#X obj 227 330 list append 31;
#X obj 324 237 r lfodestinations;
#X obj 323 258 list append 44;
#X obj 323 279 s current;
#X obj 39 472 spigot;
#X obj 102 439 r offon;
#X obj 151 439 loadbang;
#X msg 106 466 1;
#X obj 610 116 r outputbits;
#X obj 610 138 list append 4;
#X obj 610 160 s current;
#X obj 708 111 r mastertranspose;
#X obj 708 134 + 48;
#X obj 708 155 list append 45;
#X obj 708 180 s current;
#X obj 610 20 r ati1s;
#X obj 703 19 r ati2s;
#X obj 610 41 + 63;
#X obj 703 40 + 63;
#X obj 610 61 list append 46;
#X obj 703 62 list append 47;
#X obj 610 83 s current;
#X obj 703 83 s current;
#X obj 603 216 r g1resonance;
#X obj 603 237 list append 1;
#X obj 603 257 s current;
#X obj 604 320 s current;
#X obj 604 279 r g1start;
#X obj 604 300 list append 8;
#X obj 604 382 s current;
#X obj 604 341 r g1end;
#X obj 604 362 list append 0;
#X obj 603 444 s current;
#X obj 604 507 s current;
#X obj 604 569 s current;
#X obj 603 403 r g1attack;
#X obj 603 424 list append 6;
#X obj 604 466 r g1decay;
#X obj 604 487 list append 10;
#X obj 604 528 r g1sustain;
#X obj 604 549 list append 11;
#X obj 604 631 s current;
#X obj 604 590 r g1release;
#X obj 604 611 list append 18;
#X obj 715 252 s current;
#X obj 716 315 s current;
#X obj 716 377 s current;
#X obj 715 439 s current;
#X obj 716 502 s current;
#X obj 716 564 s current;
#X obj 716 626 s current;
#X obj 715 211 r g2resonance;
#X obj 716 274 r g2start;
#X obj 716 336 r g2end;
#X obj 715 398 r g2attack;
#X obj 716 461 r g2decay;
#X obj 716 523 r g2sustain;
#X obj 716 585 r g2release;
#X obj 715 232 list append 3;
#X obj 716 295 list append 9;
#X obj 716 357 list append 2;
#X obj 715 419 list append 7;
#X obj 716 482 list append 12;
#X obj 716 544 list append 13;
#X obj 716 606 list append 19;
#X obj 396 549 s current;
#X obj 508 530 s current;
#X obj 396 456 r g2detune;
#X obj 508 451 r g2transpose;
#X obj 396 494 + 63;
#X obj 396 529 list append 33;
#X obj 508 510 list append 34;
#X obj 506 487 + 63;
#X obj 812 245 s current;
#X obj 924 240 s current;
#X obj 812 204 r g1pulsewidth;
#X obj 924 199 r g2pulsewidth;
#X obj 812 225 list append 26;
#X obj 924 220 list append 27;
#X obj 879 375 r g1waveform;
#X obj 965 374 r g2waveform;
#X obj 851 427 << 4;
#X obj 868 518 +;
#X obj 880 482 f;
#X obj 851 450 t f b;
#X obj 916 464 f;
#X obj 962 457 t b f;
#X obj 868 561 s current;
#X obj 868 539 list append 23;
#X obj 188 493 << 4;
#X obj 205 584 +;
#X obj 217 548 f;
#X obj 188 516 t f b;
#X obj 253 530 f;
#X obj 299 523 t b f;
#X obj 205 627 s current;
#X obj 205 605 list append 25;
#X obj 216 441 r wtwaveform3;
#X obj 302 440 r wtwaveform4;
#X obj 365 673 s current;
#X obj 477 654 s current;
#X obj 475 611 + 63;
#X obj 364 630 r wt4detune;
#X obj 474 588 r wt4transpose;
#X obj 365 653 list append 32;
#X obj 477 634 list append 43;
#X obj 830 652 s current;
#X obj 942 647 s current;
#X obj 830 611 r wt3volume;
#X obj 942 606 r wt4volume;
#X obj 830 632 list append 41;
#X obj 942 627 list append 42;
#X connect 1 0 3 0;
#X connect 2 0 0 0;
#X connect 2 1 0 1;
#X connect 3 0 4 0;
#X connect 5 0 70 0;
#X connect 7 0 6 0;
#X connect 8 0 7 0;
#X connect 10 0 9 0;
#X connect 11 0 10 0;
#X connect 15 0 20 0;
#X connect 16 0 19 0;
#X connect 17 0 18 0;
#X connect 18 0 14 0;
#X connect 19 0 12 0;
#X connect 20 0 13 0;
#X connect 27 0 26 0;
#X connect 28 0 27 0;
#X connect 29 0 30 0;
#X connect 30 0 24 0;
#X connect 31 0 32 0;
#X connect 32 0 25 0;
#X connect 33 0 34 0;
#X connect 34 0 23 0;
#X connect 35 0 37 0;
#X connect 36 0 38 0;
#X connect 37 0 21 0;
#X connect 38 0 22 0;
#X connect 39 0 40 0;
#X connect 40 0 44 0;
#X connect 40 0 45 1;
#X connect 41 0 43 1;
#X connect 41 0 46 0;
#X connect 42 0 47 0;
#X connect 43 0 42 1;
#X connect 44 0 42 0;
#X connect 44 1 43 0;
#X connect 45 0 42 0;
#X connect 46 0 45 0;
#X connect 46 1 42 1;
#X connect 47 0 48 0;
#X connect 50 0 51 0;
#X connect 51 0 49 0;
#X connect 53 0 54 0;
#X connect 54 0 52 0;
#X connect 56 0 55 0;
#X connect 57 0 56 0;
#X connect 59 0 58 0;
#X connect 60 0 59 0;
#X connect 62 0 63 0;
#X connect 63 0 61 0;
#X connect 65 0 66 0;
#X connect 66 0 64 0;
#X connect 67 0 68 0;
#X connect 68 0 69 0;
#X connect 70 0 2 0;
#X connect 71 0 70 1;
#X connect 72 0 73 0;
#X connect 73 0 70 1;
#X connect 74 0 75 0;
#X connect 75 0 76 0;
#X connect 77 0 78 0;
#X connect 78 0 79 0;
#X connect 79 0 80 0;
#X connect 81 0 83 0;
#X connect 82 0 84 0;
#X connect 83 0 85 0;
#X connect 84 0 86 0;
#X connect 85 0 87 0;
#X connect 86 0 88 0;
#X connect 89 0 90 0;
#X connect 90 0 91 0;
#X connect 93 0 94 0;
#X connect 94 0 92 0;
#X connect 96 0 97 0;
#X connect 97 0 95 0;
#X connect 101 0 102 0;
#X connect 102 0 98 0;
#X connect 103 0 104 0;
#X connect 104 0 99 0;
#X connect 105 0 106 0;
#X connect 106 0 100 0;
#X connect 108 0 109 0;
#X connect 109 0 107 0;
#X connect 117 0 124 0;
#X connect 118 0 125 0;
#X connect 119 0 126 0;
#X connect 120 0 127 0;
#X connect 121 0 128 0;
#X connect 122 0 129 0;
#X connect 123 0 130 0;
#X connect 124 0 110 0;
#X connect 125 0 111 0;
#X connect 126 0 112 0;
#X connect 127 0 113 0;
#X connect 128 0 114 0;
#X connect 129 0 115 0;
#X connect 130 0 116 0;
#X connect 133 0 135 0;
#X connect 134 0 138 0;
#X connect 135 0 136 0;
#X connect 136 0 131 0;
#X connect 137 0 132 0;
#X connect 138 0 137 0;
#X connect 141 0 143 0;
#X connect 142 0 144 0;
#X connect 143 0 139 0;
#X connect 144 0 140 0;
#X connect 145 0 147 0;
#X connect 146 0 149 1;
#X connect 146 0 152 0;
#X connect 147 0 150 0;
#X connect 147 0 151 1;
#X connect 148 0 154 0;
#X connect 149 0 148 1;
#X connect 150 0 148 0;
#X connect 150 1 149 0;
#X connect 151 0 148 0;
#X connect 152 0 151 0;
#X connect 152 1 148 1;
#X connect 154 0 153 0;
#X connect 155 0 158 0;
#X connect 155 0 159 1;
#X connect 156 0 162 0;
#X connect 157 0 156 1;
#X connect 158 0 156 0;
#X connect 158 1 157 0;
#X connect 159 0 156 0;
#X connect 160 0 159 0;
#X connect 160 1 156 1;
#X connect 162 0 161 0;
#X connect 163 0 155 0;
#X connect 164 0 157 1;
#X connect 164 0 160 0;
#X connect 167 0 171 0;
#X connect 168 0 170 0;
#X connect 169 0 167 0;
#X connect 170 0 165 0;
#X connect 171 0 166 0;
#X connect 174 0 176 0;
#X connect 175 0 177 0;
#X connect 176 0 172 0;
#X connect 177 0 173 0;
#X restore 571 239 pd currentsound;
#X obj 445 349 delay 20;
#X msg 444 325 bang;
#X obj 641 65 s outputbits;
#X connect 0 0 1 0;
#X connect 2 0 0 0;
#X connect 3 0 2 0;
#X connect 4 0 5 0;
#X connect 5 0 6 0;
#X connect 7 0 8 0;
#X connect 9 0 8 0;
#X connect 10 0 11 0;
#X connect 11 0 7 0;
#X connect 12 0 13 0;
#X connect 13 0 9 0;
#X connect 14 0 16 0;
#X connect 15 0 17 0;
#X connect 16 0 18 0;
#X connect 17 0 19 0;
#X connect 20 0 33 0;
#X connect 21 0 32 0;
#X connect 22 0 21 0;
#X connect 24 0 25 0;
#X connect 25 0 23 0;
#X connect 26 0 31 0;
#X connect 27 0 26 0;
#X connect 30 0 21 0;
#X connect 35 0 34 0;
#X connect 36 0 37 0;
#X connect 36 0 59 0;
#X connect 38 0 39 0;
#X connect 40 0 36 0;
#X connect 41 0 38 0;
#X connect 42 0 28 0;
#X connect 43 0 42 0;
#X connect 44 0 30 0;
#X connect 44 0 47 0;
#X connect 45 0 22 0;
#X connect 46 0 20 0;
#X connect 47 0 35 0;
#X connect 48 0 29 0;
#X connect 49 0 27 0;
#X connect 50 0 24 1;
#X connect 51 0 24 0;
#X connect 52 0 53 0;
#X connect 54 0 55 0;
#X connect 56 0 52 0;
#X connect 56 0 60 0;
#X connect 58 0 35 0;
#X connect 59 0 58 0;
#X restore 74 160 pd general;
#N canvas 500 87 635 509 lfo 0;
#X obj 28 -105 list append 84 1;
#X obj 28 -44 list append 87 1;
#X obj 24 -157 list append 88 1;
#X obj 32 249 list append 92 1;
#X obj 29 117 list append 93 1;
#X obj 28 7 list append 94 1;
#X obj 29 63 list append 95 1;
#X obj 31 175 list append 96 1;
#X obj 32 229 * 33;
#X obj 32 -177 * 16;
#X obj 17 291 s control;
#X obj 33 -196 r lfowave;
#X obj 30 -129 r lfospeed;
#X obj 30 -69 r lfodepth;
#X obj 34 -18 r lfomin;
#X obj 28 44 r lfomax;
#X obj 29 97 r lfoattack;
#X obj 31 151 r lfooffset;
#X obj 32 207 r lfotrig;
#X obj 140 -133 list append 106 1;
#X obj 140 -113 s control;
#X obj 139 -195 r settings44;
#N canvas 0 22 450 300 lfobytetobit 0;
#X obj 322 112 & 1;
#X obj 236 111 & 1;
#X obj 193 111 & 1;
#X obj 96 113 & 1;
#X obj 53 113 & 1;
#X obj 10 113 & 1;
#X obj 279 111 & 1;
#X obj 236 86 >> 2;
#X obj 193 86 >> 3;
#X obj 96 88 >> 4;
#X obj 279 86 >> 1;
#X obj 53 88 >> 5;
#X obj 10 88 >> 6;
#X obj 223 40 t f f f f f f f f;
#X obj 223 14 inlet;
#X obj -33 147 s wtnr;
#X obj 19 148 s g2resor;
#X obj 79 148 s g1resor;
#X obj 142 148 s g2r;
#X obj 236 145 s g1r;
#X obj 279 145 s nr;
#X obj 322 145 s wtr;
#X connect 0 0 21 0;
#X connect 1 0 19 0;
#X connect 2 0 18 0;
#X connect 3 0 17 0;
#X connect 4 0 16 0;
#X connect 5 0 15 0;
#X connect 6 0 20 0;
#X connect 7 0 1 0;
#X connect 8 0 2 0;
#X connect 9 0 3 0;
#X connect 10 0 6 0;
#X connect 11 0 4 0;
#X connect 12 0 5 0;
#X connect 13 1 12 0;
#X connect 13 2 11 0;
#X connect 13 3 9 0;
#X connect 13 4 8 0;
#X connect 13 5 7 0;
#X connect 13 6 10 0;
#X connect 13 7 0 0;
#X connect 14 0 13 0;
#X restore 139 -173 pd lfobytetobit;
#N canvas 0 22 450 300 lfobittobyte 0;
#X obj 11 59 << 7;
#X obj 47 59 << 6;
#X obj 83 59 << 5;
#X obj 119 59 << 4;
#X obj 155 60 << 3;
#X obj 191 59 << 2;
#X obj 227 59 << 1;
#X obj 47 80 t b f;
#X obj 11 145 +;
#X obj 83 80 t b f;
#X obj 11 180 +;
#X obj 119 80 t b f;
#X obj 11 217 +;
#X obj 155 80 t b f;
#X obj 11 254 +;
#X obj 191 80 t b f;
#X obj 11 290 +;
#X obj 227 80 t b f;
#X obj 263 80 t b f;
#X obj 11 327 +;
#X obj 11 353 outlet;
#X obj 11 112 +;
#X obj 1 16 r wtns;
#X obj 48 14 r g2resos;
#X obj 119 12 r g1resos;
#X obj 181 11 r g2s;
#X obj 219 10 r g1s;
#X obj 257 10 r ns;
#X obj 289 10 r wts;
#X connect 0 0 21 0;
#X connect 1 0 7 0;
#X connect 2 0 9 0;
#X connect 3 0 11 0;
#X connect 4 0 13 0;
#X connect 5 0 15 0;
#X connect 6 0 17 0;
#X connect 7 0 21 0;
#X connect 7 1 21 1;
#X connect 8 0 10 0;
#X connect 9 0 8 0;
#X connect 9 1 8 1;
#X connect 10 0 12 0;
#X connect 11 0 10 0;
#X connect 11 1 10 1;
#X connect 12 0 14 0;
#X connect 13 0 12 0;
#X connect 13 1 12 1;
#X connect 14 0 16 0;
#X connect 15 0 14 0;
#X connect 15 1 14 1;
#X connect 16 0 19 0;
#X connect 17 0 16 0;
#X connect 17 1 16 1;
#X connect 18 0 19 0;
#X connect 18 1 19 1;
#X connect 19 0 20 0;
#X connect 21 0 8 0;
#X connect 22 0 1 0;
#X connect 23 0 2 0;
#X connect 24 0 3 0;
#X connect 25 0 4 0;
#X connect 26 0 5 0;
#X connect 27 0 6 0;
#X connect 28 0 18 0;
#X restore 140 -153 pd lfobittobyte;
#X obj 251 -133 s lfodestinations;
#X obj 177 365 r lfotrig;
#X obj 177 386 select 0 1 2 3;
#X msg 23 443 \; settings24b label free_run;
#X msg 194 443 \; settings24b label note_on;
#X msg 395 443 \; settings24b label note_off;
#X msg 571 443 \; settings24b label release;
#X obj 94 501 select 0 1 2 3 4 5;
#X obj 94 480 r lfowave;
#X msg -30 559 \; settings24a label sine;
#X msg 115 558 \; settings24a label triangle;
#X msg 275 558 \; settings24a label rising_saw;
#X msg 459 558 \; settings24a label falling_saw;
#X msg 844 558 \; settings24a label falling_square;
#X msg 645 558 \; settings24a label rising_square;
#X connect 0 0 10 0;
#X connect 1 0 10 0;
#X connect 2 0 10 0;
#X connect 3 0 10 0;
#X connect 4 0 10 0;
#X connect 5 0 10 0;
#X connect 6 0 10 0;
#X connect 7 0 10 0;
#X connect 8 0 3 0;
#X connect 9 0 2 0;
#X connect 11 0 9 0;
#X connect 12 0 0 0;
#X connect 13 0 1 0;
#X connect 14 0 5 0;
#X connect 15 0 6 0;
#X connect 16 0 4 0;
#X connect 17 0 7 0;
#X connect 18 0 8 0;
#X connect 19 0 20 0;
#X connect 21 0 22 0;
#X connect 23 0 19 0;
#X connect 23 0 24 0;
#X connect 25 0 26 0;
#X connect 26 0 27 0;
#X connect 26 1 28 0;
#X connect 26 2 29 0;
#X connect 26 3 30 0;
#X connect 31 0 33 0;
#X connect 31 1 34 0;
#X connect 31 2 35 0;
#X connect 31 3 36 0;
#X connect 31 4 38 0;
#X connect 31 5 37 0;
#X connect 32 0 31 0;
#X restore 135 198 pd lfo;
#X text 889 68 destinations:;
#X floatatom 976 22 5 -63 64 0 grain1_depth ati1r ati1s, f 5;
#X floatatom 976 40 5 -63 64 0 grain2_depth ati2r ati2s, f 5;
#X text 900 4 aftertouchimpact;
#X obj 208 -48 bng 15 250 50 0 loadfile bla file_to_editor 17 7 0 10
-262144 -1 -1;
#X obj 208 -31 bng 15 250 50 0 savefile bla save_to_file 17 7 0 10
-262144 -1 -1;
#X floatatom 284 -79 7 -8191 8192 1 pitchbendtest bla pitchbend, f
7;
#X obj 208 -14 bng 15 250 50 0 loadfromsynth bla synth_to_editor 17
7 0 10 -262144 -1 -1;
#X obj 208 3 bng 15 250 50 0 savetosynth bla save_to_synth 17 7 0 10
-262144 -1 -1;
#X text 132 27 turn on/off output bits.;
#X text 276 38 grain1 controls;
#N canvas 0 22 437 584 grain1 0;
#X obj 31 142 list append 67 1;
#X obj 32 183 list append 73 1;
#X obj 30 223 list append 74 1;
#X obj 30 60 list append 71 1;
#X obj 31 101 list append 57 1;
#X obj 30 264 list append 81 1;
#X obj 60 311 list append 85 1;
#X obj 70 366 list append 90 1;
#X obj 27 310 * 35;
#X obj 30 18 list append 58 1;
#X obj 57 393 s control;
#X obj 30 -3 r g1resonance;
#X obj 30 38 r g1start;
#X obj 31 81 r g1end;
#X obj 31 121 r g1attack;
#X obj 32 163 r g1decay;
#X obj 31 203 r g1sustain;
#X obj 31 244 r g1release;
#X obj 30 286 r g1waveform;
#X obj 92 345 r g1pulsewidth;
#X connect 0 0 10 0;
#X connect 1 0 10 0;
#X connect 2 0 10 0;
#X connect 3 0 10 0;
#X connect 4 0 10 0;
#X connect 5 0 10 0;
#X connect 6 0 10 0;
#X connect 7 0 10 0;
#X connect 8 0 6 0;
#X connect 9 0 10 0;
#X connect 11 0 9 0;
#X connect 12 0 3 0;
#X connect 13 0 4 0;
#X connect 14 0 0 0;
#X connect 15 0 1 0;
#X connect 16 0 2 0;
#X connect 17 0 5 0;
#X connect 18 0 8 0;
#X connect 19 0 7 0;
#X restore 74 217 pd grain1;
#X floatatom 420 41 5 -63 64 1 detune settings33offset g2detune, f
5;
#X floatatom 491 41 5 -63 64 1 transpose settings34offset g2transpose
, f 5;
#X text 417 22 grain2 controls;
#N canvas 0 22 456 562 grain2 0;
#X obj 20 156 list append 60 1;
#X obj 21 278 list append 68 1;
#X obj 22 196 list append 72 1;
#X obj 22 236 list append 59 1;
#X obj 21 319 list append 75 1;
#X obj 21 359 list append 76 1;
#X obj 22 401 list append 82 1;
#X obj 47 444 list append 86 1;
#X obj 20 486 list append 91 1;
#X obj 19 52 list append 114 1;
#X obj 19 113 list append 115 1;
#X obj 17 444 * 35;
#X obj 19 510 s control;
#X obj 21 12 r g2detune;
#X obj 20 31 + 63;
#X obj 20 72 r g2transpose;
#X obj 19 92 + 63;
#X obj 20 133 r g2resonance;
#X obj 22 176 r g2start;
#X obj 23 216 r g2end;
#X obj 21 257 r g2attack;
#X obj 21 298 r g2decay;
#X obj 21 339 r g2sustain;
#X obj 22 380 r g2release;
#X obj 19 421 r g2waveform;
#X obj 21 464 r g2pulsewidth;
#X obj 231 20 r settings33;
#X obj 231 43 - 63;
#X obj 232 65 s settings33offset;
#X obj 232 109 - 63;
#X obj 232 86 r settings34;
#X obj 233 131 s settings34offset;
#X connect 0 0 12 0;
#X connect 1 0 12 0;
#X connect 2 0 12 0;
#X connect 3 0 12 0;
#X connect 4 0 12 0;
#X connect 5 0 12 0;
#X connect 6 0 12 0;
#X connect 7 0 12 0;
#X connect 8 0 12 0;
#X connect 9 0 12 0;
#X connect 10 0 12 0;
#X connect 11 0 7 0;
#X connect 13 0 14 0;
#X connect 14 0 9 0;
#X connect 15 0 16 0;
#X connect 16 0 10 0;
#X connect 17 0 0 0;
#X connect 18 0 2 0;
#X connect 19 0 3 0;
#X connect 20 0 1 0;
#X connect 21 0 4 0;
#X connect 22 0 5 0;
#X connect 23 0 6 0;
#X connect 24 0 11 0;
#X connect 25 0 8 0;
#X connect 26 0 27 0;
#X connect 27 0 28 0;
#X connect 29 0 31 0;
#X connect 30 0 29 0;
#X restore 74 236 pd grain2;
#X floatatom 353 321 5 -63 64 1 transpose settings43offset wt4transpose
, f 5;
#X floatatom 353 305 5 0 127 1 detune settings32 wt4detune, f 5;
#N canvas 0 22 840 607 wavetable 0;
#X obj 448 93 list append 105 1;
#X obj 158 51 list append 124 1;
#X obj 165 97 list append 125 1;
#X obj 21 43 list append 127 1;
#X obj 302 96 list append 54 1;
#X obj -11 42 * 16;
#X obj -12 94 * 16;
#X obj -12 114 list append 69 1;
#X obj 161 129 s control;
#X obj -11 20 r wtwaveform3;
#X obj -12 69 r wtwaveform4;
#X obj 158 28 r wt3volume;
#X obj 166 76 r wt4volume;
#X obj 318 -10 r settings43;
#X obj 318 13 - 63;
#X obj 318 35 s settings43offset;
#X obj 302 75 r wt4transpose;
#X obj 451 67 r wt4detune;
#X obj 128 452 select 0 1 2 3 4;
#X obj 128 431 r wtwaveform4;
#X msg 4 510 \; settings25b label sine;
#X msg 149 509 \; settings25b label square;
#X msg 309 509 \; settings25b label saw;
#X msg 454 508 \; settings25b label triangle;
#X msg 623 507 \; settings25b label noise;
#X obj 131 223 select 0 1 2 3 4;
#X msg 7 281 \; settings25a label sine;
#X obj 131 202 r wtwaveform3;
#X msg 152 280 \; settings25a label square;
#X msg 312 280 \; settings25a label saw;
#X msg 457 279 \; settings25a label triangle;
#X msg 626 278 \; settings25a label noise;
#X connect 0 0 8 0;
#X connect 1 0 8 0;
#X connect 2 0 8 0;
#X connect 3 0 8 0;
#X connect 4 0 8 0;
#X connect 5 0 3 0;
#X connect 6 0 7 0;
#X connect 7 0 8 0;
#X connect 9 0 5 0;
#X connect 10 0 6 0;
#X connect 11 0 1 0;
#X connect 12 0 2 0;
#X connect 13 0 14 0;
#X connect 14 0 15 0;
#X connect 16 0 4 0;
#X connect 17 0 0 0;
#X connect 18 0 20 0;
#X connect 18 1 21 0;
#X connect 18 2 22 0;
#X connect 18 3 23 0;
#X connect 18 4 24 0;
#X connect 19 0 18 0;
#X connect 25 0 26 0;
#X connect 25 1 28 0;
#X connect 25 2 29 0;
#X connect 25 3 30 0;
#X connect 25 4 31 0;
#X connect 27 0 25 0;
#X restore 135 218 pd wavetable;
#X text 274 237 wavetable controls;
#X connect 62 0 61 0;
